<?xml version="1.0" encoding="UTF-8" standalone="no"?>
<!-- Created with Inkscape (http://www.inkscape.org/) -->
<svg
   xmlns:svg="http://www.w3.org/2000/svg"
   xmlns="http://www.w3.org/2000/svg"
   version="1.0"
   width="800"
   height="415.39301"
   viewBox="0 0 800 415.393"
   id="Layer_1"
   xml:space="preserve"><defs
   id="defs22" />
<g
   id="g3">
	<path
   d="M 0,378.43 L 26.403,378.43 L 26.403,273.832 L 67.633,365.023 C 72.305,375.989 79.006,380.052 92.004,380.052 C 105.002,380.052 111.296,375.989 116.173,365.023 L 157.199,273.832 L 157.199,378.43 L 183.804,378.43 L 183.804,273.832 C 183.804,263.68 179.741,258.803 171.21,256.162 C 151.106,250.072 137.699,255.353 131.607,268.96 L 91.193,359.133 L 52.196,268.96 C 46.306,255.354 32.699,250.072 12.389,256.162 C 4.063,258.803 0,263.68 0,273.832 L 0,378.43 L 0,378.43 z "
   style="fill:#004e61;fill-rule:evenodd"
   id="path5" />
	<path
   d="M 205.739,293.329 L 232.344,293.329 L 232.344,350.807 C 232.142,354.057 233.36,361.37 247.778,361.574 C 255.293,361.774 305.053,361.574 305.458,361.574 L 305.458,292.926 L 332.065,292.926 C 332.065,292.926 332.065,386.553 332.065,386.962 C 332.065,410.112 303.428,415.19 290.023,415.394 L 206.347,415.394 L 206.347,397.724 C 206.55,397.724 290.023,397.724 290.225,397.724 C 307.286,395.897 305.254,387.367 305.254,384.522 L 305.254,377.618 L 248.997,377.618 C 222.797,377.414 205.94,365.839 205.738,352.636 C 205.739,351.416 206.348,293.738 205.739,293.329 L 205.739,293.329 z "
   style="fill:#004e61;fill-rule:evenodd"
   id="path7" />
	<path
   d="M 776.44,226.715 C 760.192,226.308 747.603,227.935 737.041,232.401 C 733.992,233.621 729.12,233.621 728.711,237.479 C 730.338,239.106 730.542,241.747 731.965,243.978 C 734.402,248.041 738.664,253.523 742.523,256.368 C 746.791,259.617 751.053,262.867 755.521,265.712 C 763.443,270.584 772.382,273.429 780.099,278.301 C 784.566,281.146 789.034,284.8 793.501,287.85 C 795.737,289.472 797.155,292.113 800,293.131 C 800,292.926 800,292.722 800,292.522 C 798.577,290.691 798.173,288.05 796.751,286.018 C 794.719,283.992 792.692,282.16 790.66,280.128 C 784.77,272.211 777.458,265.303 769.536,259.617 C 763.037,255.15 748.821,249.055 746.181,241.543 C 746.181,241.543 745.977,241.339 745.773,241.134 C 750.245,240.73 755.521,239.107 759.789,237.889 C 766.692,236.06 772.991,236.464 780.1,234.637 C 783.349,233.824 786.599,232.808 789.848,231.792 C 789.848,231.184 789.848,230.574 789.848,229.965 C 786.19,226.309 783.554,221.435 779.691,217.983 C 769.334,209.046 757.962,200.314 746.182,193.003 C 739.883,188.94 731.762,186.3 725.058,182.848 C 722.622,181.628 718.559,181.019 717.137,178.99 C 713.483,174.52 711.451,168.633 708.811,163.352 C 702.92,152.181 697.235,139.792 692.159,128.012 C 688.501,120.091 686.269,112.169 681.802,104.859 C 660.882,70.333 638.136,49.415 603.2,28.901 C 595.687,24.638 586.753,22.809 577.204,20.575 C 572.128,20.37 567.052,19.966 561.975,19.762 C 558.721,18.34 555.476,14.483 552.631,12.654 C 541.056,5.343 511.201,-10.497 502.67,10.42 C 497.185,23.623 510.792,36.618 515.464,43.322 C 518.918,47.994 523.385,53.273 525.821,58.556 C 527.244,62.006 527.648,65.664 529.07,69.318 C 532.32,78.253 535.365,88.206 539.633,96.534 C 541.864,100.799 544.305,105.266 547.146,109.125 C 548.773,111.359 551.613,112.375 552.227,116.031 C 549.381,120.092 549.177,126.186 547.555,131.262 C 540.242,154.213 543.087,182.645 553.445,199.502 C 556.694,204.581 564.412,215.752 574.769,211.486 C 583.909,207.83 581.876,196.252 584.517,186.099 C 585.126,183.661 584.722,182.036 585.94,180.411 C 585.94,180.613 585.94,180.818 585.94,180.818 C 588.785,186.504 591.626,191.989 594.266,197.674 C 600.56,207.625 611.527,217.984 620.666,224.89 C 625.542,228.546 629.4,234.841 635.495,237.077 C 635.495,236.873 635.495,236.671 635.495,236.466 C 635.291,236.466 635.291,236.466 635.086,236.466 C 633.868,234.639 632.041,233.825 630.419,232.403 C 626.761,228.749 622.697,224.279 619.856,220.218 C 611.326,208.844 603.809,196.251 597.11,183.253 C 593.86,176.959 591.015,170.053 588.375,163.756 C 587.157,161.32 587.157,157.664 585.126,156.446 C 582.081,160.913 577.613,164.772 575.377,170.255 C 571.519,178.99 571.114,189.752 569.691,200.923 C 568.878,201.128 569.283,200.923 568.878,201.33 C 562.379,199.705 560.144,193.004 557.707,187.316 C 551.612,172.896 550.6,149.742 555.88,133.09 C 557.303,128.825 563.393,115.42 560.957,111.357 C 559.739,107.499 555.676,105.265 553.444,102.218 C 550.803,98.359 547.959,93.485 546.131,89.22 C 541.254,77.846 538.818,65.255 533.537,53.88 C 531.101,48.601 526.838,43.116 523.384,38.244 C 519.526,32.761 515.258,28.9 512.213,22.401 C 511.2,20.167 509.777,16.511 511.4,14.075 C 511.809,12.45 512.619,11.841 514.246,11.434 C 516.886,9.201 524.398,12.043 527.039,13.261 C 534.557,16.308 540.851,19.151 547.145,23.416 C 549.99,25.447 553.035,29.306 556.693,30.322 C 558.111,30.322 559.534,30.322 560.957,30.322 C 567.456,31.744 574.769,30.729 580.862,32.556 C 591.625,36.008 601.373,41.086 610.108,46.57 C 636.712,63.426 658.646,87.393 673.475,116.03 C 675.912,120.699 676.925,124.967 679.161,129.839 C 683.425,139.792 688.705,149.947 692.969,159.696 C 697.236,169.242 701.299,178.99 707.389,186.91 C 710.439,191.175 722.623,193.409 728.104,195.643 C 732.167,197.472 738.466,199.097 742.121,201.331 C 749.024,205.596 755.933,210.471 762.432,215.14 C 765.678,217.575 775.831,222.651 776.44,226.715 L 776.44,226.715 z "
   style="fill:#004e61;fill-rule:evenodd"
   id="path9" />
	<path
   d="M 569.281,50.224 C 565.827,50.224 563.39,50.631 560.955,51.24 C 560.955,51.24 560.955,51.442 560.955,51.645 C 561.159,51.645 561.159,51.645 561.364,51.645 C 562.986,54.895 565.827,57.13 567.858,59.973 C 569.485,63.223 570.908,66.472 572.53,69.722 C 572.734,69.52 572.939,69.315 572.939,69.315 C 575.78,67.286 577.202,64.034 577.202,59.162 C 575.984,57.74 575.78,56.317 574.766,54.895 C 573.548,52.862 570.908,51.848 569.281,50.224 L 569.281,50.224 z "
   style="fill:#004e61;fill-rule:evenodd"
   id="path11" />
	<path
   d="M 352.375,378.43 L 428.738,378.43 C 437.674,378.43 446.204,376.603 453.112,373.349 C 464.687,368.073 470.173,360.965 470.173,351.62 L 470.173,332.123 C 470.173,324.606 463.874,317.498 451.285,312.626 C 444.786,310.186 436.66,308.768 428.738,308.768 L 396.65,308.768 C 385.886,308.768 380.809,305.514 379.387,298.407 C 379.182,297.597 379.182,296.784 379.182,295.97 L 379.182,283.99 C 379.182,283.381 379.182,282.567 379.387,281.754 C 380.809,276.269 383.65,274.851 392.994,273.832 C 393.806,273.832 394.821,273.832 395.43,273.832 L 471.186,273.832 L 471.186,256.162 L 396.852,256.162 C 386.088,256.162 380.402,256.771 375.324,258.398 C 359.685,263.27 352.78,270.987 352.78,284.598 L 352.78,300.033 C 352.78,312.012 366.185,322.171 388.934,324.606 C 391.37,324.81 394.01,324.81 396.651,324.81 L 424.067,324.81 C 425.086,324.81 426.099,324.81 426.913,325.015 C 435.238,325.824 438.892,327.246 441.333,330.291 C 442.956,331.918 443.364,333.341 443.364,335.168 L 443.364,350.602 C 443.364,352.433 442.146,354.87 439.706,356.901 C 437.27,358.932 433.412,360.355 428.335,360.555 C 427.317,360.555 426.708,360.759 425.694,360.759 L 352.376,360.759 L 352.376,378.43 L 352.375,378.43 z "
   style="fill:#e87b00;fill-rule:evenodd"
   id="path13" />
	<path
   d="M 635.493,347.762 C 635.493,365.837 649.1,375.99 676.314,378.022 C 678.955,378.226 681.39,378.43 684.031,378.43 L 753.085,378.43 L 753.085,360.76 L 683.423,360.76 C 667.988,360.76 662.099,356.902 662.099,347.558 L 662.099,256.162 L 635.494,256.162 L 635.494,347.762 L 635.493,347.762 z "
   style="fill:#e87b00;fill-rule:evenodd"
   id="path15" />
	<path
   d="M 487.029,348.571 L 487.029,285.612 C 487.029,269.569 498.4,259.821 520.538,256.771 C 522.975,256.571 525.415,256.367 527.646,256.367 L 578.015,256.367 C 580.656,256.367 582.887,256.571 585.528,256.771 C 607.666,259.821 618.837,269.569 618.837,285.612 L 618.837,348.571 C 618.837,361.573 614.169,368.476 603.198,373.149 L 629.194,396.709 L 598.526,396.709 L 577.407,377.616 L 556.083,378.835 L 527.646,378.835 C 522.974,378.835 517.693,378.226 512.211,376.803 C 495.355,372.131 487.029,363.196 487.029,348.571 L 487.029,348.571 z M 515.666,347.153 C 515.666,347.962 516.07,348.775 516.275,349.794 C 517.693,357.102 524.601,361.164 535.163,361.164 L 559.128,361.164 L 537.194,341.263 L 567.858,341.263 L 587.155,358.729 C 590.809,356.698 593.045,353.852 593.858,350.199 C 594.058,349.386 594.058,348.372 594.058,347.558 L 594.058,287.236 C 594.058,286.426 594.058,285.613 593.858,284.799 C 592.436,277.896 585.528,274.037 575.17,274.037 L 535.162,274.037 C 523.382,274.037 515.665,279.113 515.665,287.235 L 515.665,347.153 L 515.666,347.153 z "
   style="fill:#e87b00;fill-rule:evenodd"
   id="path17" />
	<path
   d="M 765.273,378.63 L 769.131,378.63 L 769.131,363.805 L 774.207,363.805 L 774.207,360.76 L 759.991,360.76 L 759.991,363.805 L 765.272,363.805 L 765.272,378.63 L 765.273,378.63 z M 794.719,378.63 L 798.378,378.63 L 798.378,360.76 L 792.892,360.76 L 788.425,372.945 L 783.553,360.76 L 778.267,360.76 L 778.267,378.63 L 781.721,378.63 L 781.721,365.024 L 781.926,365.024 L 787.002,378.63 L 789.643,378.63 L 794.719,365.024 L 794.719,365.024 L 794.719,378.63 L 794.719,378.63 z "
   style="fill:#e87b00;fill-rule:evenodd"
   id="path19" />
</g>
</svg>